<svg xmlns="http://www.w3.org/2000/svg" viewBox="0 0 100 100" width="100" height="100">
  <!-- Fiducia Shield Logo with F Letter -->
  <defs>
    <linearGradient id="shieldGradient" x1="0%" y1="0%" x2="0%" y2="100%">
      <stop offset="0%" style="stop-color:#2E7D8A;stop-opacity:1" />
      <stop offset="100%" style="stop-color:#1A5B66;stop-opacity:1" />
    </linearGradient>
    <filter id="shadow" x="-20%" y="-20%" width="140%" height="140%">
      <feDropShadow dx="2" dy="4" stdDeviation="2" flood-color="#000000" flood-opacity="0.3" />
    </filter>
  </defs>

  <!-- Shield Background -->
  <path d="M50 5 
           C55 5, 70 8, 85 15
           C85 25, 85 45, 85 55
           C85 75, 70 88, 50 95
           C30 88, 15 75, 15 55
           C15 45, 15 25, 15 15
           C30 8, 45 5, 50 5 Z" fill="url(#shieldGradient)" stroke="#1c420f" stroke-width="1" filter="url(#shadow)" />

  <g transform="translate(30, 25) scale(2.7)">
    <path fill-rule="evenodd" clip-rule="evenodd"
      d="M2 0H10C12.7614 0 15 2.23858 15 5C15 7.76142 12.7614 10 10 10H5V16H2V0ZM5 7H10C11.1046 7 12 6.10457 12 5C12 3.89543 11.1046 3 10 3H5V7Z"
      fill="#ffffff"></path>
  </g>

</svg>